# Blender v3.2.0 OBJ File: 'untitled.blend'
# www.blender.org
mtllib head third.mtl
o Model.011_Model.024
v 128.438797 -0.944489 -86.884857
v 128.190201 -14.795258 -55.883423
v 125.666862 10.216339 -90.658478
v 125.036942 -27.852722 -7.398392
v 130.798309 -22.271515 -59.147354
v 127.754738 -34.198029 -11.170059
v 130.472565 -38.042053 -24.876328
v 127.586037 -26.587158 -8.605972
v 130.593887 -0.250519 -85.855072
v 127.895012 10.593933 -89.718628
v 130.446884 -13.800598 -55.489243
v 132.940475 -20.847198 -58.599487
v 132.738129 -36.087860 -25.329422
v 130.162079 -32.521759 -12.263931
v 118.239342 -31.227509 -4.178131
v 124.420845 -43.240997 -23.660172
v 121.330093 -38.661346 -8.250946
v 125.099014 -26.075378 -60.610580
v 122.181992 -17.455505 -56.937759
v 119.725121 9.209381 -93.164787
v 122.703796 -2.821960 -89.642136
v 126.692078 -41.294800 -24.117981
v 120.788445 -29.961975 -5.385727
v 123.740242 -36.989410 -9.346130
v 127.235176 -24.649841 -60.062218
v 124.433853 -16.456696 -56.541916
v 124.852898 -2.114349 -88.606659
v 121.953285 9.586945 -92.224915
v 116.011536 8.579956 -94.731224
v 113.990868 -33.336761 -2.165466
v 119.128250 -4.016418 -91.374374
v 118.433899 -19.126343 -57.599960
v 121.538864 -28.436310 -61.518646
v 120.624329 -46.458344 -22.884842
v 117.307571 -41.434204 -6.421799
v 116.187088 -20.131683 -57.998413
v 113.783386 8.202362 -95.671074
v 116.985497 -4.739380 -92.416412
v 111.441765 -34.602325 -0.957870
v 119.401695 -29.843597 -62.059875
v 114.891327 -43.090668 -5.322250
v 118.340927 -48.374725 -22.413269
v 138.780716 -30.898285 -26.544189
v 134.383636 -23.212341 -11.826248
v 136.582153 -28.062775 -15.183792
v 138.673569 -17.079926 -57.150589
v 136.472244 -11.150787 -54.439133
v 133.836746 11.600922 -87.212326
v 136.349945 1.581726 -83.116379
v 131.834534 -24.477905 -10.618668
v 134.174164 -29.731201 -14.087891
v 136.513794 -32.837067 -26.086182
v 136.518295 -18.483826 -57.690460
v 131.608597 11.223297 -88.152191
v 134.189438 0.898438 -84.141891
v 134.211060 -12.144196 -54.832809
vt 0.333740 0.105957
vt 0.269287 0.105957
vt 0.349365 0.121582
vt 0.177612 0.121582
vt 0.269287 0.090332
vt 0.179688 0.107910
vt 0.199219 0.090332
vt 0.003904 0.123535
vt 0.158081 0.105957
vt 0.173706 0.123535
vt 0.095642 0.105957
vt 0.095642 0.093750
vt 0.027344 0.093750
vt 0.005856 0.109375
vt 0.027344 0.203125
vt 0.037079 0.189453
vt 0.027344 0.187500
vt 0.037079 0.203125
vt 0.037079 0.269531
vt 0.027344 0.269531
vt 0.037079 0.289551
vt 0.027344 0.289551
vt 0.185547 0.083984
vt 0.210938 0.046875
vt 0.187500 0.068359
vt 0.289062 0.046875
vt 0.289062 0.064453
vt 0.371094 0.083984
vt 0.355469 0.064453
vt 0.029297 0.316406
vt 0.029297 0.331543
vt 0.041016 0.316406
vt 0.041016 0.331543
vt 0.029297 0.354004
vt 0.041016 0.354004
vt 0.041016 0.425781
vt 0.029297 0.425781
vt 0.029297 0.052734
vt 0.003904 0.088379
vt 0.005856 0.072754
vt 0.103516 0.052734
vt 0.103516 0.068359
vt 0.169922 0.068359
vt 0.183594 0.088379
vt 0.025391 0.425781
vt 0.025391 0.347656
vt 0.013672 0.425781
vt 0.013672 0.347656
vt 0.025391 0.323242
vt 0.013672 0.323242
vt 0.013672 0.305664
vt 0.025391 0.305664
vt 0.013672 0.197754
vt 0.023438 0.182129
vt 0.013672 0.180176
vt 0.023438 0.197754
vt 0.023438 0.267578
vt 0.013672 0.267578
vt 0.013672 0.289551
vt 0.023438 0.289551
vt 0.195312 0.048828
vt 0.003904 0.048828
vt 0.181641 0.027832
vt 0.109375 0.027832
vt 0.109375 0.010254
vt 0.029297 0.010254
vt 0.005856 0.031250
vt 0.304688 0.023926
vt 0.390625 0.043457
vt 0.375000 0.023926
vt 0.195312 0.043457
vt 0.304688 0.001953
vt 0.197266 0.025879
vt 0.220581 0.001953
vt 0.000000 0.171875
vt 0.009766 0.193359
vt 0.009766 0.173828
vt 0.000000 0.193359
vt 0.000000 0.265625
vt 0.009766 0.265625
vt 0.000000 0.289551
vt 0.009766 0.289551
vt 0.000000 0.295898
vt 0.000000 0.314453
vt 0.009766 0.295898
vt 0.009766 0.314453
vt 0.000000 0.342285
vt 0.009766 0.342285
vt 0.009766 0.425781
vt 0.000000 0.425781
vt 0.025391 0.126953
vt 0.003904 0.152832
vt 0.007812 0.140625
vt 0.087891 0.126953
vt 0.087891 0.139160
vt 0.160034 0.152832
vt 0.144409 0.139160
vt 0.044922 0.327148
vt 0.056641 0.340332
vt 0.056641 0.327148
vt 0.044922 0.340332
vt 0.044922 0.359375
vt 0.056641 0.359375
vt 0.056641 0.425781
vt 0.044922 0.425781
vt 0.041016 0.289551
vt 0.050751 0.289551
vt 0.041016 0.271484
vt 0.050751 0.271484
vt 0.041016 0.208984
vt 0.050751 0.208984
vt 0.050751 0.195801
vt 0.041016 0.195801
vt 0.187500 0.125000
vt 0.169922 0.140625
vt 0.253662 0.125000
vt 0.167969 0.152832
vt 0.253662 0.139160
vt 0.329834 0.152832
vt 0.314209 0.139160
vn -0.9504 -0.2811 -0.1332
vn -0.9491 -0.2831 -0.1378
vn -0.9496 -0.2832 -0.1348
vn -0.9404 -0.3105 -0.1385
vn -0.9524 -0.2739 -0.1341
vn -0.9434 -0.3029 -0.1351
vn -0.9618 -0.2452 -0.1220
vn 0.9449 0.3048 0.1190
vn 0.9492 0.2848 0.1341
vn 0.9495 0.2840 0.1338
vn 0.9455 0.2950 0.1381
vn 0.9512 0.2781 0.1338
vn 0.9491 0.2873 0.1292
vn 0.9324 0.3504 0.0882
vn -0.0176 0.3979 -0.9173
vn -0.0241 0.3935 -0.9190
vn -0.0258 0.3924 -0.9194
vn -0.0158 0.3991 -0.9168
vn 0.4281 -0.8261 -0.3665
vn 0.4286 -0.8259 -0.3664
vn 0.4380 -0.8221 -0.3638
vn 0.4384 -0.8219 -0.3637
vn 0.4723 -0.1892 -0.8609
vn 0.4646 -0.1905 -0.8648
vn 0.4169 -0.1982 -0.8871
vn 0.4093 -0.1994 -0.8903
vn -0.9483 -0.2926 -0.1228
vn -0.9527 -0.2727 -0.1342
vn -0.9358 -0.3419 -0.0861
vn -0.9545 -0.2634 -0.1401
vn -0.9504 -0.2762 -0.1429
vn -0.9502 -0.2781 -0.1403
vn -0.9511 -0.2761 -0.1387
vn 0.5166 -0.2631 0.8148
vn 0.6136 -0.4799 0.6270
vn 0.5227 -0.2618 0.8114
vn 0.6296 -0.5304 0.5678
vn 0.6569 -0.7519 0.0548
vn 0.6443 -0.7620 -0.0652
vn 0.5794 -0.7425 -0.3362
vn 0.5796 -0.7424 -0.3361
vn 0.9518 0.2763 0.1328
vn 0.9475 0.2956 0.1217
vn 0.9350 0.3439 0.0866
vn 0.9537 0.2669 0.1384
vn 0.9470 0.2873 0.1433
vn 0.9499 0.2796 0.1399
vn 0.9502 0.2786 0.1396
vn 0.5810 -0.7419 -0.3348
vn 0.6429 -0.7637 -0.0588
vn 0.5807 -0.7421 -0.3348
vn 0.6556 -0.7524 0.0640
vn 0.6232 -0.5153 0.5883
vn 0.6124 -0.4631 0.6407
vn 0.5165 -0.2433 0.8210
vn 0.5126 -0.2480 0.8221
vn -0.0132 0.3905 -0.9205
vn -0.0195 0.3867 -0.9220
vn -0.0208 0.3859 -0.9223
vn -0.0118 0.3913 -0.9202
vn 0.4304 -0.8261 -0.3639
vn 0.4310 -0.8258 -0.3637
vn 0.4432 -0.8208 -0.3603
vn 0.4437 -0.8206 -0.3601
vn 0.4668 -0.1401 -0.8732
vn 0.4159 -0.1712 -0.8932
vn 0.4598 -0.1445 -0.8762
vn 0.4078 -0.1760 -0.8960
vn 0.9508 0.2738 0.1448
vn 0.9495 0.2881 0.1243
vn 0.9505 0.2748 0.1451
vn 0.9482 0.2812 0.1481
vn 0.9554 0.2583 0.1428
vn 0.9540 0.2670 0.1364
vn 0.9369 0.3389 0.0853
vn -0.9513 -0.2705 -0.1475
vn -0.9508 -0.2736 -0.1451
vn -0.9517 -0.2716 -0.1435
vn -0.9433 -0.2977 -0.1466
vn -0.9561 -0.2560 -0.1425
vn -0.9473 -0.2870 -0.1423
vn -0.9675 -0.2181 -0.1278
vn -0.0164 0.3829 -0.9236
vn -0.0094 0.3835 -0.9235
vn -0.0181 0.3827 -0.9237
vn -0.0079 0.3836 -0.9235
vn 0.4490 -0.8190 -0.3571
vn 0.4342 -0.8260 -0.3594
vn 0.4335 -0.8263 -0.3595
vn 0.4498 -0.8187 -0.3570
vn 0.4125 -0.1363 -0.9007
vn 0.4572 -0.1103 -0.8825
vn 0.4637 -0.1065 -0.8796
vn 0.4049 -0.1406 -0.9035
vn 0.5056 -0.2231 0.8334
vn 0.6069 -0.4591 0.6488
vn 0.5090 -0.2222 0.8316
vn 0.6209 -0.5074 0.5975
vn 0.6492 -0.7573 0.0710
vn 0.6350 -0.7705 -0.0565
vn 0.5754 -0.7467 -0.3337
vn 0.5759 -0.7464 -0.3335
vn 0.9455 0.3004 0.1256
vn 0.9416 0.3160 0.1166
vn 0.9291 0.3586 0.0903
vn 0.9474 0.2929 0.1293
vn 0.9465 0.2955 0.1299
vn 0.9484 0.2910 0.1257
vn 0.9493 0.2889 0.1242
vn 0.5348 -0.2984 0.7905
vn 0.6286 -0.5508 0.5491
vn 0.5280 -0.3084 0.7913
vn 0.6189 -0.4902 0.6137
vn 0.6525 -0.7565 0.0439
vn 0.6394 -0.7652 -0.0744
vn 0.5716 -0.7471 -0.3392
vn 0.4115 -0.2388 -0.8796
vn 0.4196 -0.2375 -0.8761
vn 0.4672 -0.2296 -0.8538
vn 0.4754 -0.2281 -0.8497
vn 0.4339 -0.8230 -0.3666
vn 0.4273 -0.8257 -0.3684
vn 0.4342 -0.8229 -0.3665
vn 0.4269 -0.8258 -0.3685
vn -0.0210 0.4093 -0.9121
vn -0.0298 0.4027 -0.9149
vn -0.0234 0.4075 -0.9129
vn -0.0319 0.4011 -0.9155
vn -0.9578 -0.2617 -0.1190
vn -0.9404 -0.3135 -0.1314
vn -0.9491 -0.2871 -0.1299
vn -0.9381 -0.3194 -0.1342
vn -0.9473 -0.2917 -0.1321
vn -0.9488 -0.2887 -0.1284
vn -0.9496 -0.2866 -0.1269
usemtl 6f03fc
s 1
f 1/1/1 2/2/2 3/3/3
f 4/4/4 3/3/3 2/2/2
f 5/5/5 4/4/4 2/2/2
f 5/5/5 6/6/6 4/4/4
f 7/7/7 6/6/6 5/5/5
f 8/8/8 9/9/9 10/10/10
f 11/11/11 9/9/9 8/8/8
f 12/12/12 11/11/11 8/8/8
f 13/13/13 12/12/12 8/8/8
f 14/14/14 13/13/13 8/8/8
f 2/15/15 12/16/16 5/17/17
f 11/18/18 12/16/16 2/15/15
f 11/18/19 2/15/20 9/19/21
f 9/19/21 2/15/20 1/20/22
f 9/19/23 1/20/24 10/21/25
f 3/22/26 10/21/25 1/20/24
f 15/23/27 16/24/28 17/25/29
f 18/26/30 16/24/28 15/23/27
f 19/27/31 18/26/30 15/23/27
f 20/28/32 19/27/31 15/23/27
f 21/29/33 19/27/31 20/28/32
f 4/30/34 6/31/35 8/32/36
f 14/33/37 8/32/36 6/31/35
f 7/34/38 14/33/37 6/31/35
f 13/35/39 14/33/37 7/34/38
f 12/36/40 13/35/39 7/34/38
f 5/37/41 12/36/40 7/34/38
f 22/38/42 23/39/43 24/40/44
f 25/41/45 23/39/43 22/38/42
f 25/41/45 26/42/46 23/39/43
f 27/43/47 23/39/43 26/42/46
f 28/44/48 23/39/43 27/43/47
f 25/45/49 22/46/50 18/47/51
f 16/48/52 18/47/51 22/46/50
f 24/49/53 16/48/52 22/46/50
f 17/50/54 16/48/52 24/49/53
f 15/51/55 17/50/54 24/49/53
f 23/52/56 15/51/55 24/49/53
f 19/53/57 25/54/58 18/55/59
f 26/56/60 25/54/58 19/53/57
f 26/56/61 19/53/62 27/57/63
f 19/53/62 21/58/64 27/57/63
f 21/58/65 20/59/66 27/57/67
f 28/60/68 27/57/67 20/59/66
f 29/61/69 30/62/70 31/63/71
f 32/64/72 31/63/71 30/62/70
f 33/65/73 32/64/72 30/62/70
f 34/66/74 33/65/73 30/62/70
f 35/67/75 34/66/74 30/62/70
f 36/68/76 37/69/77 38/70/78
f 39/71/79 37/69/77 36/68/76
f 40/72/80 39/71/79 36/68/76
f 40/72/80 41/73/81 39/71/79
f 42/74/82 41/73/81 40/72/80
f 40/75/83 32/76/84 33/77/85
f 36/78/86 32/76/84 40/75/83
f 38/79/87 32/76/88 36/78/89
f 31/80/90 32/76/88 38/79/87
f 37/81/91 31/80/92 38/79/93
f 29/82/94 31/80/92 37/81/91
f 39/83/95 41/84/96 30/85/97
f 35/86/98 30/85/97 41/84/96
f 42/87/99 35/86/98 41/84/96
f 34/88/100 35/86/98 42/87/99
f 33/89/101 34/88/100 42/87/99
f 40/90/102 33/89/101 42/87/99
f 43/91/103 44/92/104 45/93/105
f 46/94/106 44/92/104 43/91/103
f 47/95/107 44/92/104 46/94/106
f 48/96/108 44/92/104 47/95/107
f 49/97/109 48/96/108 47/95/107
f 50/98/110 45/99/111 44/100/112
f 51/101/113 45/99/111 50/98/110
f 52/102/114 45/99/111 51/101/113
f 43/103/115 45/99/111 52/102/114
f 46/104/116 43/103/115 52/102/114
f 53/105/116 46/104/116 52/102/114
f 54/106/117 48/107/118 55/108/119
f 49/109/120 55/108/119 48/107/118
f 49/109/121 56/110/122 55/108/123
f 47/111/124 56/110/122 49/109/121
f 47/111/125 46/112/126 56/110/127
f 56/110/127 46/112/126 53/113/128
f 52/114/129 51/115/130 53/116/131
f 50/117/132 53/116/131 51/115/130
f 56/118/133 53/116/131 50/117/132
f 54/119/134 56/118/133 50/117/132
f 55/120/135 56/118/133 54/119/134
